# xmcd
#
# Track frame offsets:
#	182
#	11820
#	21270
#	31445
#	43595
#	56170
#	76007
#	89370
#	101595
#	118932
#	130707
#	143457
#	156582
#	174082
#	185670
#	197345
#	208695
#	223382
#	236257
#	249432
#	273732
#	288782
#
# Disc length: 4012
#
# Revision: 4
# Processed by: cddbd v1.5.1PL0 Copyright (c) Steve Scherf et al.
# Submitted via: ExactAudioCopy v0.95a4
# Normalized: r2:TDELIM( - ),TSWAP
#
DISCID=380faa16
DTITLE=Various Artist - Sweet Soul And Blues Ballads
DYEAR=1993
DGENRE=Blues
TTITLE0=Erma Franklin - Piece Of My Heart
TTITLE1=Sam Cooke - Wonderful World
TTITLE2=Aretha Franklin - Think
TTITLE3=John Lee Hooker - In The Mood
TTITLE4=Dinah Washington - Mad About The Boy
TTITLE5=Screamin Jay Hawkins - Heart Attack and Vine
TTITLE6=Ben E. King - Stand By Me
TTITLE7=Ann Peebles - I'm Gone Tear Your Playhouse Down
TTITLE8=Fleetwood Mac - Need Your Love So Bad
TTITLE9=Sam and Dave - Soul Man
TTITLE10=Martha Reeves - Jimmy Mack
TTITLE11=Percy Sledge - When A Man Loves A Woman
TTITLE12=The Isley Brothers - Harvest For The World
TTITLE13=Etta James - I'd Rather Go Blind
TTITLE14=The Drifters - Under The Boardwalk
TTITLE15=Otis Redding - These Arms Of Mine
TTITLE16=Al Green - Let's Stay Together
TTITLE17=Fontella Bass - Rescue Me
TTITLE18=Jackie Wilson - I Get The Sweetest Feeling
TTITLE19=Muddy Waters - Manish Boy
TTITLE20=Harold Melvin - If You Don't Know Me By Now
TTITLE21=Aretha Franklin - A Natural Woman
EXTD=
EXTT0=
EXTT1=
EXTT2=
EXTT3=
EXTT4=
EXTT5=
EXTT6=
EXTT7=
EXTT8=
EXTT9=
EXTT10=
EXTT11=
EXTT12=
EXTT13=
EXTT14=
EXTT15=
EXTT16=
EXTT17=
EXTT18=
EXTT19=
EXTT20=
EXTT21=
PLAYORDER=
